<?xml version="1.0" standalone="no"?>
<!DOCTYPE svg PUBLIC "-//W3C//DTD SVG 20010904//EN"
 "http://www.w3.org/TR/2001/REC-SVG-20010904/DTD/svg10.dtd">
<svg version="1.0" xmlns="http://www.w3.org/2000/svg"
 width="626.000000pt" height="626.000000pt" viewBox="0 0 626.000000 626.000000"
 preserveAspectRatio="xMidYMid meet">

<g transform="translate(0.000000,626.000000) scale(0.100000,-0.100000)"
fill="#000000" stroke="none">
<path d="M3217 5116 c-10 -25 -8 -33 3 -16 7 12 11 10 19 -10 5 -14 10 -18 10
-9 1 8 -5 23 -12 33 -13 18 -14 18 -20 2z"/>
<path d="M3100 5109 c0 -5 5 -7 10 -4 6 3 10 8 10 11 0 2 -4 4 -10 4 -5 0 -10
-5 -10 -11z"/>
<path d="M3212 5005 c0 -16 2 -22 5 -12 2 9 2 23 0 30 -3 6 -5 -1 -5 -18z"/>
<path d="M3232 5000 c0 -14 2 -19 5 -12 2 6 2 18 0 25 -3 6 -5 1 -5 -13z"/>
<path d="M3113 4940 c0 -25 2 -35 4 -22 2 12 2 32 0 45 -2 12 -4 2 -4 -23z"/>
<path d="M6000 4717 c-140 -73 -345 -179 -455 -236 -882 -456 -1028 -535
-1442 -783 -18 -11 -33 -24 -33 -28 0 -5 50 -118 111 -252 145 -318 179 -393
289 -638 51 -113 102 -223 113 -245 12 -22 22 -41 23 -43 1 -2 127 47 280 108
235 94 362 154 803 378 289 147 535 271 548 275 l23 9 0 794 c0 437 -1 794 -2
794 -2 0 -118 -60 -258 -133z"/>
<path d="M2130 4778 c0 -5 -4 -6 -10 -3 -16 10 -11 -1 7 -16 14 -12 16 -12 8
0 -6 11 -4 13 8 8 8 -3 20 0 26 7 9 11 6 14 -14 14 -14 0 -25 -5 -25 -10z"/>
<path d="M3161 4672 c-6 -11 -6 -31 0 -52 l9 -35 -5 38 c-2 22 0 35 6 32 5 -4
9 3 9 14 0 26 -6 27 -19 3z"/>
<path d="M4160 4676 c0 -2 8 -10 18 -17 15 -13 16 -12 3 4 -13 16 -21 21 -21
13z"/>
<path d="M2235 4589 c-4 -5 1 -16 11 -23 10 -8 14 -18 9 -26 -6 -9 -4 -11 5
-5 10 6 12 4 7 -9 -4 -10 -3 -15 3 -11 15 9 12 31 -5 45 -8 7 -13 16 -10 20 3
5 1 11 -4 14 -5 4 -13 1 -16 -5z"/>
<path d="M3137 4593 c-4 -4 -5 -23 -2 -42 4 -29 3 -32 -5 -16 -9 18 -10 17 -5
-5 3 -14 8 -42 11 -62 4 -21 10 -35 14 -33 4 3 5 20 1 37 -4 18 -6 54 -5 81 2
49 1 51 -9 40z"/>
<path d="M4033 4476 c-8 -9 -8 -17 -1 -24 6 -6 6 -12 -1 -16 -6 -4 -11 -2 -11
5 0 6 -15 -6 -34 -27 -22 -25 -31 -43 -25 -48 6 -6 14 -5 22 3 10 10 8 11 -8
5 l-20 -7 20 20 c11 11 23 19 27 17 11 -7 57 56 52 71 -7 18 -6 18 -21 1z"/>
<path d="M3116 4443 c3 -47 14 -56 14 -10 0 20 -3 38 -8 41 -4 2 -7 -11 -6
-31z"/>
<path d="M2326 4432 c-3 -5 1 -20 9 -35 7 -14 10 -28 7 -32 -4 -3 1 -3 11 1
11 4 17 1 17 -7 0 -7 2 -10 5 -7 8 8 -6 39 -15 33 -8 -5 -26 33 -22 48 3 10
-6 9 -12 -1z"/>
<path d="M3122 4370 c-14 -23 -16 -120 -2 -120 5 0 7 7 3 15 -3 9 0 35 7 60
14 51 10 74 -8 45z"/>
<path d="M3923 4335 c-10 -11 -9 -13 6 -12 11 1 17 7 14 14 -6 16 -5 16 -20
-2z"/>
<path d="M3895 4300 c-4 -6 -1 -10 6 -10 7 0 4 -6 -7 -14 -10 -8 -16 -17 -13
-20 3 -3 16 5 28 18 18 20 20 24 7 29 -9 3 -18 2 -21 -3z"/>
<path d="M916 3578 c-9 -17 -16 -37 -16 -45 0 -8 -4 -11 -10 -8 -5 3 -10 0
-10 -8 0 -7 -34 -79 -75 -158 -41 -79 -96 -186 -122 -237 -33 -64 -52 -91 -62
-87 -12 5 -12 3 0 -12 13 -15 12 -16 -9 -10 -23 6 -24 5 -5 -15 16 -20 17 -21
1 -15 -53 20 -45 13 21 -18 40 -20 75 -34 76 -33 1 2 33 80 70 173 37 94 78
193 90 220 57 127 65 150 60 169 -3 12 -2 15 1 8 6 -14 34 37 49 89 5 18 4 21
-4 9 -7 -10 -11 -11 -11 -2 0 24 -29 12 -44 -20z m-206 -612 c0 -2 -7 -7 -16
-10 -8 -3 -12 -2 -9 4 6 10 25 14 25 6z"/>
<path d="M25 3270 c-3 -6 1 -7 9 -4 18 7 21 14 7 14 -6 0 -13 -4 -16 -10z"/>
<path d="M52 3261 c-11 -7 -11 -9 0 -14 9 -3 15 1 15 9 0 8 -1 14 -1 14 -1 0
-7 -4 -14 -9z"/>
<path d="M125 3240 c-3 -5 -1 -10 4 -10 6 0 11 5 11 10 0 6 -2 10 -4 10 -3 0
-8 -4 -11 -10z"/>
<path d="M165 3211 c-9 -15 15 -25 28 -12 9 9 7 10 -7 5 -13 -5 -17 -4 -12 4
4 7 5 12 2 12 -3 0 -7 -4 -11 -9z"/>
<path d="M255 3169 c-4 -6 -5 -12 -2 -15 2 -3 7 2 10 11 7 17 1 20 -8 4z"/>
<path d="M306 3133 c-6 -14 -5 -15 5 -6 7 7 10 15 7 18 -3 3 -9 -2 -12 -12z"/>
<path d="M411 3077 c2 -1 13 -9 24 -17 19 -14 19 -14 6 3 -7 9 -18 17 -24 17
-6 0 -8 -1 -6 -3z"/>
<path d="M500 3040 c-9 -6 -10 -10 -3 -10 6 0 15 5 18 10 8 12 4 12 -15 0z"/>
<path d="M552 3041 c-11 -7 -10 -9 3 -14 9 -4 13 -3 10 2 -3 5 3 12 12 14 13
3 14 5 3 6 -8 0 -21 -3 -28 -8z"/>
<path d="M4587 1989 c7 -7 15 -10 18 -7 3 3 -2 9 -12 12 -14 6 -15 5 -6 -5z"/>
<path d="M4621 1974 c0 -11 3 -14 6 -6 3 7 2 16 -1 19 -3 4 -6 -2 -5 -13z"/>
<path d="M4700 1966 c0 -2 11 -6 25 -8 13 -3 22 -1 19 3 -5 9 -44 13 -44 5z"/>
<path d="M4828 1953 c7 -3 16 -2 19 1 4 3 -2 6 -13 5 -11 0 -14 -3 -6 -6z"/>
<path d="M4788 1943 c7 -3 16 -2 19 1 4 3 -2 6 -13 5 -11 0 -14 -3 -6 -6z"/>
<path d="M4860 1945 c0 -2 6 -8 13 -14 10 -8 14 -7 14 2 0 8 -6 14 -14 14 -7
0 -13 -1 -13 -2z"/>
<path d="M5146 1905 c-3 -8 -1 -15 4 -15 6 0 10 7 10 15 0 8 -2 15 -4 15 -2 0
-6 -7 -10 -15z"/>
<path d="M5173 1910 c2 -8 -5 -20 -16 -26 -13 -7 -16 -14 -8 -18 6 -4 11 -3
11 3 0 5 9 8 20 6 11 -2 18 0 15 6 -4 5 -1 9 4 9 6 0 11 5 11 11 0 5 -5 7 -11
3 -6 -3 -16 0 -21 7 -8 12 -9 11 -5 -1z"/>
<path d="M1635 1780 c-4 -6 -10 -8 -15 -5 -5 3 -11 1 -15 -5 -3 -5 -13 -10
-21 -10 -9 0 -23 -8 -32 -17 -18 -18 -21 -19 35 4 12 5 14 3 8 -7 -5 -9 -4
-11 4 -6 6 4 8 12 5 18 -5 7 0 9 14 6 14 -4 22 -2 22 7 0 7 6 16 13 18 9 4 9
6 0 6 -6 1 -15 -4 -18 -9z"/>
<path d="M1512 1731 c2 -9 -6 -16 -17 -18 -16 -3 -17 -2 -5 6 18 13 1 14 -19
2 -11 -7 -10 -11 7 -20 36 -19 65 9 38 36 -4 4 -6 2 -4 -6z"/>
<path d="M1448 1683 c-9 -2 -20 -13 -23 -24 -7 -22 -14 -23 -39 -4 -11 9 -24
11 -35 6 -53 -27 -70 -33 -82 -26 -8 6 -10 4 -4 -5 6 -10 4 -12 -9 -7 -10 4
-15 3 -11 -3 3 -6 -3 -10 -14 -10 -12 0 -21 -4 -21 -10 0 -5 9 -10 20 -10 14
0 20 -6 18 -17 -2 -13 4 -18 20 -18 12 0 22 4 21 9 -1 9 21 26 35 26 4 0 5 -7
2 -16 -3 -9 -2 -12 5 -9 6 4 8 14 5 22 -4 10 -1 13 13 8 11 -3 22 -1 26 4 3 6
0 8 -8 6 -7 -3 -22 3 -32 15 -16 18 -16 20 -2 20 10 0 16 -5 15 -12 -2 -7 8
-13 24 -13 15 -1 25 2 22 6 -2 4 9 10 25 14 17 3 31 14 34 26 3 10 13 19 24
19 15 0 16 -2 3 -11 -10 -7 -11 -9 -2 -7 8 2 13 8 13 13 0 11 -18 15 -43 8z
m-62 -50 c-7 -7 -26 7 -26 19 0 6 6 6 15 -2 9 -7 13 -15 11 -17z m-68 -23 c11
-1 8 -6 -11 -16 -17 -9 -25 -20 -21 -27 4 -7 3 -8 -1 -4 -5 4 -11 19 -13 34
-2 20 0 24 13 19 9 -3 24 -6 33 -6z"/>
<path d="M1380 1676 c0 -2 7 -6 15 -10 8 -3 15 -1 15 4 0 6 -7 10 -15 10 -8 0
-15 -2 -15 -4z"/>
<path d="M1120 1575 c-22 -12 -23 -14 -7 -21 10 -3 21 -4 24 0 4 3 0 6 -8 6
-8 1 -3 7 11 15 14 8 21 14 15 14 -5 0 -21 -6 -35 -14z"/>
<path d="M1170 1580 c0 -5 5 -10 10 -10 6 0 10 5 10 10 0 6 -4 10 -10 10 -5 0
-10 -4 -10 -10z"/>
<path d="M1195 1570 c-4 -6 -15 -8 -26 -5 -11 4 -19 3 -18 -2 4 -22 -2 -35
-14 -30 -8 3 -14 -1 -14 -8 0 -10 5 -11 19 -4 22 12 62 -6 52 -24 -3 -7 3 -1
14 13 11 13 18 28 16 32 -7 12 -34 10 -34 -2 0 -5 -4 -10 -10 -10 -21 0 -8 19
20 29 17 5 30 12 30 15 0 10 -29 6 -35 -4z"/>
<path d="M1000 1526 c0 -3 9 -10 20 -16 11 -6 20 -8 20 -6 0 3 -9 10 -20 16
-11 6 -20 8 -20 6z"/>
<path d="M1235 1520 c-3 -6 1 -7 9 -4 18 7 21 14 7 14 -6 0 -13 -4 -16 -10z"/>
<path d="M1137 1498 c-16 -12 -15 -13 6 -13 13 0 24 6 24 13 0 6 -3 12 -7 12
-3 0 -14 -6 -23 -12z"/>
<path d="M930 1485 c-7 -9 -8 -15 -2 -15 5 0 12 7 16 15 3 8 4 15 2 15 -2 0
-9 -7 -16 -15z"/>
<path d="M981 1491 c-11 -7 -11 -10 0 -15 8 -3 5 -5 -6 -3 -11 2 -26 -2 -33
-9 -15 -16 -16 -27 -1 -18 7 4 9 0 5 -14 -4 -12 -2 -23 5 -28 7 -4 9 -3 6 4
-11 17 3 42 34 57 34 18 43 19 33 3 -5 -7 -3 -8 6 -3 10 6 9 11 -5 22 -22 15
-25 16 -44 4z"/>
<path d="M1052 1433 c-23 -15 -42 -32 -42 -36 0 -5 6 -5 13 1 12 10 17 12 40
12 9 0 9 2 -1 8 -9 6 -5 12 13 20 15 7 31 9 37 6 7 -4 8 -2 4 4 -10 17 -17 15
-64 -15z"/>
<path d="M990 1439 c0 -5 5 -7 10 -4 6 3 10 8 10 11 0 2 -4 4 -10 4 -5 0 -10
-5 -10 -11z"/>
<path d="M4165 1429 c-4 -5 7 -24 24 -42 16 -18 40 -43 51 -57 12 -14 19 -20
16 -13 -4 6 -2 14 4 18 5 3 10 -1 10 -9 0 -10 6 -13 15 -10 11 5 13 2 9 -10
-4 -10 -13 -15 -23 -12 -11 4 -11 2 3 -9 11 -8 28 -27 38 -42 10 -16 18 -22
18 -15 0 7 4 11 10 7 5 -3 7 -11 4 -18 -2 -7 7 -24 20 -36 14 -13 23 -27 21
-32 -3 -4 0 -11 7 -16 18 -11 39 -13 33 -3 -3 5 -1 11 5 15 6 4 8 11 5 16 -4
5 -2 9 4 9 5 0 15 -8 20 -17 6 -10 11 -13 11 -7 0 6 -11 21 -25 34 -14 13 -23
26 -20 28 8 8 -27 42 -36 36 -5 -3 -9 3 -9 13 0 15 -2 15 -9 3 -12 -18 -3 -33
16 -26 8 4 11 1 7 -5 -3 -6 4 -21 17 -35 12 -13 19 -24 14 -24 -4 0 -14 8 -21
18 -7 9 -14 12 -14 5 0 -6 9 -18 20 -26 18 -13 19 -16 5 -27 -8 -7 -16 -10
-16 -6 -1 3 -2 9 -3 14 -1 4 -6 14 -11 22 -5 8 -10 22 -10 31 0 9 -5 22 -11
30 -5 8 -10 23 -10 34 1 12 -14 30 -37 46 -21 15 -39 30 -40 35 -2 11 -20 6
-28 -8 -4 -5 -9 -3 -12 7 -4 9 -3 13 2 10 5 -3 12 -1 16 5 3 5 -1 10 -9 10 -9
0 -15 6 -13 13 1 7 -6 11 -17 9 -11 -2 -15 1 -11 8 7 11 -11 40 -26 40 -4 0
-11 -5 -14 -11z m29 -20 c-3 -5 -10 -7 -15 -3 -5 3 -7 10 -3 15 3 5 10 7 15 3
5 -3 7 -10 3 -15z m33 -34 c0 -8 -4 -12 -9 -9 -5 3 -6 10 -3 15 9 13 12 11 12
-6z m99 -88 c12 -3 16 -35 5 -42 -5 -3 -13 0 -17 6 -5 8 -3 9 6 4 8 -5 11 -3
8 6 -3 8 -10 14 -16 14 -7 0 -12 3 -12 8 0 31 0 32 9 19 4 -8 12 -14 17 -15z
m38 -83 c3 -8 2 -12 -4 -9 -6 3 -10 10 -10 16 0 14 7 11 14 -7z"/>
<path d="M2095 1189 c-20 -25 -23 -34 -13 -40 8 -5 15 -4 17 4 2 7 12 22 23
33 11 13 15 24 10 28 -6 3 -22 -8 -37 -25z m35 18 c0 -2 -10 -12 -22 -23 l-23
-19 19 23 c18 21 26 27 26 19z"/>
<path d="M2889 1175 c-1 -3 -2 -9 -3 -14 0 -5 -4 -13 -8 -17 -5 -4 -8 -12 -8
-18 0 -6 5 -4 10 4 8 12 10 9 10 -13 0 -18 -4 -26 -11 -21 -8 4 -9 0 -4 -15 3
-12 2 -21 -4 -21 -7 0 -6 -10 1 -31 6 -16 8 -33 4 -36 -3 -4 -6 1 -6 10 0 9
-4 17 -10 17 -21 0 -10 -38 13 -42 21 -4 22 -2 23 80 0 48 5 86 11 90 7 5 6
11 -3 20 -8 7 -15 10 -15 7z"/>
<path d="M4486 1151 c-7 -11 3 -41 14 -41 4 0 10 7 13 14 4 11 1 13 -10 9 -12
-5 -15 -2 -10 10 7 18 2 23 -7 8z"/>
<path d="M2050 1132 c0 -7 -5 -11 -11 -9 -15 3 -20 -31 -6 -40 7 -3 9 -2 4 2
-4 5 0 17 10 27 9 10 13 21 10 25 -4 3 -7 1 -7 -5z"/>
<path d="M4445 1120 c4 -13 3 -20 -2 -17 -5 4 -10 0 -10 -7 0 -8 6 -12 14 -9
11 4 17 -7 15 -28 -1 -3 5 -6 13 -6 8 0 11 5 7 11 -3 6 -5 20 -4 31 2 17 1 17
-7 5 -9 -12 -11 -11 -11 7 0 12 -5 25 -11 29 -8 4 -9 -1 -4 -16z"/>
<path d="M1984 1069 c-3 -6 -2 -15 4 -21 6 -6 12 -6 17 3 6 8 4 10 -5 4 -10
-6 -12 -4 -7 8 7 19 2 23 -9 6z"/>
<path d="M4510 1073 c0 -5 9 -14 20 -21 11 -7 20 -8 20 -2 0 5 -9 14 -20 20
-11 6 -20 7 -20 3z"/>
<path d="M4571 1066 c-6 -7 -8 -22 -4 -31 4 -13 3 -16 -5 -11 -23 14 -11 -19
12 -36 21 -15 25 -15 30 -3 3 8 10 15 16 15 6 0 8 -5 5 -10 -4 -6 -1 -9 6 -8
7 2 16 -8 20 -22 7 -20 8 -18 4 10 l-5 35 25 -27 c14 -16 30 -28 36 -28 6 0 7
-5 4 -10 -4 -6 -1 -17 5 -25 10 -11 10 -15 1 -15 -7 0 -9 -5 -6 -11 9 -14 16
-6 19 24 2 20 -8 36 -49 71 l-52 45 -20 -21 c-20 -20 -43 -18 -43 3 0 6 4 8 8
5 4 -2 8 4 8 14 0 10 -4 16 -8 14 -12 -8 -9 11 4 24 7 7 9 12 6 12 -3 0 -11
-6 -17 -14z m74 -56 c3 -5 1 -10 -4 -10 -6 0 -11 5 -11 10 0 6 2 10 4 10 3 0
8 -4 11 -10z"/>
<path d="M1951 1028 c-16 -26 -11 -30 11 -7 10 10 14 20 10 23 -5 3 -14 -4
-21 -16z"/>
<path d="M4521 1033 c7 -12 15 -20 18 -17 3 2 -3 12 -13 22 -17 16 -18 16 -5
-5z"/>
<path d="M4600 1029 c0 -5 5 -7 10 -4 6 3 10 8 10 11 0 2 -4 4 -10 4 -5 0 -10
-5 -10 -11z"/>
<path d="M4498 1014 c6 -11 18 -28 27 -39 15 -19 15 -18 1 12 -9 17 -21 35
-27 39 -8 4 -8 1 -1 -12z"/>
<path d="M2830 971 c0 -5 6 -11 13 -14 9 -3 9 -7 -2 -20 -10 -13 -11 -20 -2
-31 6 -7 9 -21 5 -30 -11 -28 4 -17 20 16 20 39 20 62 1 28 -17 -29 -20 -9 -4
22 9 16 8 23 -2 29 -18 11 -29 11 -29 0z"/>
<path d="M3628 964 c12 -8 22 -20 22 -26 0 -7 -5 -7 -14 1 -10 9 -10 3 3 -22
10 -21 19 -30 23 -23 12 17 9 28 -4 20 -8 -5 -9 -2 -5 10 9 23 -9 56 -31 56
-13 0 -12 -3 6 -16z"/>
<path d="M4554 949 c-3 -6 -1 -16 5 -22 9 -9 11 -8 6 6 -9 21 8 23 25 2 7 -8
17 -15 23 -15 5 0 2 9 -8 20 -20 22 -40 26 -51 9z"/>
<path d="M4636 927 c3 -10 9 -15 12 -12 3 3 0 11 -7 18 -10 9 -11 8 -5 -6z"/>
<path d="M4691 914 c0 -11 3 -14 6 -6 3 7 2 16 -1 19 -3 4 -6 -2 -5 -13z"/>
<path d="M4580 910 c0 -5 5 -10 11 -10 5 0 7 5 4 10 -3 6 -8 10 -11 10 -2 0
-4 -4 -4 -10z"/>
<path d="M2816 897 c3 -10 9 -15 12 -12 3 3 0 11 -7 18 -10 9 -11 8 -5 -6z"/>
<path d="M4625 900 c4 -6 2 -17 -4 -24 -17 -21 7 -25 54 -10 22 7 32 13 23 13
-9 1 -29 -4 -45 -9 -24 -9 -26 -8 -11 3 15 12 15 14 -4 26 -12 8 -17 8 -13 1z"/>
<path d="M1782 868 c-9 -11 -8 -19 3 -34 9 -10 15 -14 14 -9 -3 22 2 29 11 15
5 -8 10 -10 10 -4 0 5 -6 18 -13 28 -11 15 -15 16 -25 4z m18 -8 c0 -5 -5 -10
-11 -10 -5 0 -7 5 -4 10 3 6 8 10 11 10 2 0 4 -4 4 -10z"/>
<path d="M2826 832 c16 -14 20 -26 16 -56 -3 -26 -7 -34 -13 -25 -7 11 -9 10
-9 -4 0 -34 25 -11 31 29 7 39 -10 74 -35 74 -6 -1 -2 -8 10 -18z"/>
<path d="M2855 840 c3 -5 8 -10 11 -10 2 0 4 5 4 10 0 6 -5 10 -11 10 -5 0 -7
-4 -4 -10z"/>
<path d="M3687 836 c-3 -7 1 -23 9 -34 8 -11 11 -29 8 -39 -5 -17 -5 -17 6 -1
8 13 8 23 -2 40 -7 13 -11 29 -10 36 4 16 -5 15 -11 -2z"/>
<path d="M2781 764 c0 -11 3 -14 6 -6 3 7 2 16 -1 19 -3 4 -6 -2 -5 -13z"/>
<path d="M2862 750 c0 -14 2 -19 5 -12 2 6 2 18 0 25 -3 6 -5 1 -5 -13z"/>
<path d="M2780 721 c-14 -27 -12 -52 5 -75 18 -24 20 -14 3 14 -10 15 -10 27
-1 50 13 34 9 40 -7 11z"/>
<path d="M2852 700 c0 -14 2 -19 5 -12 2 6 2 18 0 25 -3 6 -5 1 -5 -13z"/>
<path d="M2810 694 c0 -16 -2 -17 -10 -4 -8 13 -10 13 -10 -2 0 -20 16 -32 25
-18 4 6 11 8 16 5 15 -10 10 12 -6 25 -12 10 -15 9 -15 -6z"/>
<path d="M2751 650 c-1 -23 15 -45 23 -31 4 6 3 11 -3 11 -5 0 -12 8 -14 18
-3 12 -5 13 -6 2z"/>
<path d="M2812 605 c0 -16 2 -22 5 -12 2 9 2 23 0 30 -3 6 -5 -1 -5 -18z"/>
<path d="M2776 593 c-6 -14 -5 -15 5 -6 7 7 10 15 7 18 -3 3 -9 -2 -12 -12z"/>
<path d="M2740 571 c0 -5 -3 -18 -6 -28 -5 -16 -4 -16 10 1 18 23 20 36 6 36
-5 0 -10 -4 -10 -9z"/>
<path d="M3779 558 c-9 -32 -6 -44 11 -45 11 -1 24 6 30 16 8 16 6 17 -17 13
-18 -3 -24 -1 -19 7 4 6 5 11 2 11 -3 0 -6 -1 -7 -2z"/>
<path d="M2765 530 c-3 -5 -1 -10 4 -10 6 0 11 5 11 10 0 6 -2 10 -4 10 -3 0
-8 -4 -11 -10z"/>
<path d="M2823 494 c-3 -8 -2 -19 3 -24 5 -5 9 1 9 16 0 28 -3 30 -12 8z"/>
<path d="M2761 484 c0 -11 3 -14 6 -6 3 7 2 16 -1 19 -3 4 -6 -2 -5 -13z"/>
<path d="M2680 340 c18 -12 30 -13 30 -2 0 4 -10 9 -22 9 -18 2 -20 0 -8 -7z"/>
<path d="M2790 320 c-8 -5 -11 -12 -7 -17 5 -4 12 -1 16 6 7 11 10 11 14 0 3
-9 6 -10 6 -2 1 17 -13 23 -29 13z"/>
<path d="M2685 310 c3 -5 8 -10 11 -10 2 0 4 5 4 10 0 6 -5 10 -11 10 -5 0 -7
-4 -4 -10z"/>
</g>
</svg>
